<?xml version="1.0" encoding="UTF-8"?>
<svg width="24px" height="24px" viewBox="0 0 24 24" version="1.1" xmlns="http://www.w3.org/2000/svg" xmlns:xlink="http://www.w3.org/1999/xlink">
    <!-- Generator: sketchtool 53.2 (72643) - https://sketchapp.com -->
    <title>8A6A9936-1888-4431-A92E-30A77B60368B@1x</title>
    <desc>Created with sketchtool.</desc>
    <g id="AquaGradus-Deluxe-landing-" stroke="none" stroke-width="1" fill="none" fill-rule="evenodd">
        <g id="AquaGradus-DeLuxe-popup" transform="translate(-509.000000, -94.000000)" fill="#444444" fill-rule="nonzero">
            <g id="cancel-music" transform="translate(509.000000, 94.000000)">
                <path d="M14.8511549,12.0550654 L23.4073239,3.5388785 C24.1949296,2.75495327 24.1949296,1.48396262 23.4073239,0.700149533 C22.6197183,-0.0837757009 21.3428732,-0.0837757009 20.5552676,0.700149533 L11.9989859,9.2164486 L3.44270423,0.700037383 C2.65509859,-0.0838878505 1.37825352,-0.0838878505 0.590647887,0.700037383 C-0.19684507,1.48396262 -0.19684507,2.75495327 0.590647887,3.53876636 L9.14692958,12.0549533 L0.590647887,20.5712523 C-0.19684507,21.3551776 -0.19684507,22.6261682 0.590647887,23.4099813 C1.37825352,24.1939065 2.65509859,24.1939065 3.44270423,23.4099813 L11.9989859,14.8936822 L20.5552676,23.4099813 C21.3427606,24.1939065 22.6197183,24.1939065 23.4073239,23.4099813 C24.1949296,22.6260561 24.1949296,21.3551776 23.4073239,20.5712523 L14.8511549,12.0550654 Z" id="Path"></path>
            </g>
        </g>
    </g>
</svg>