<?xml version="1.0" encoding="UTF-8"?>
<svg width="34px" height="34px" viewBox="0 0 34 34" version="1.1" xmlns="http://www.w3.org/2000/svg" xmlns:xlink="http://www.w3.org/1999/xlink">
    <!-- Generator: sketchtool 55.2 (78181) - https://sketchapp.com -->
    <title>5D4946EC-08E2-4EB1-B0C4-AF2B14195375@1x</title>
    <desc>Created with sketchtool.</desc>
    <defs>
        <linearGradient x1="100%" y1="50%" x2="0%" y2="50%" id="linearGradient-1">
            <stop stop-color="#FFCB33" offset="0%"></stop>
            <stop stop-color="#FF9B17" offset="100%"></stop>
        </linearGradient>
        <linearGradient x1="100%" y1="50%" x2="0%" y2="50%" id="linearGradient-2">
            <stop stop-color="#FFCB33" offset="0%"></stop>
            <stop stop-color="#FF9B17" offset="100%"></stop>
        </linearGradient>
    </defs>
    <g id="AquaGradus-Deluxe-landing-" stroke="none" stroke-width="1" fill="none" fill-rule="evenodd">
        <g id="AquaGradus-DeLuxe-landing-" transform="translate(-1497.000000, -7111.000000)" fill-rule="nonzero">
            <g id="social" transform="translate(1368.000000, 7081.000000)">
                <g id="instagram" transform="translate(130.000000, 31.000000)">
                    <path d="M15.9569778,20.9443556 C13.2309333,20.9443556 11.0129778,18.7264 11.0129778,16 C11.0129778,13.2739556 13.2309333,11.056 15.9569778,11.056 C18.6833778,11.056 20.9013333,13.2739556 20.9013333,16 C20.9013333,18.7260444 18.6830222,20.9443556 15.9569778,20.9443556 Z M21.0602667,12.0782222 C20.4149333,12.0782222 19.8901333,11.5534222 19.8901333,10.9084444 C19.8901333,10.2634667 20.4149333,9.73866667 21.0602667,9.73866667 C21.7052444,9.73866667 22.2300444,10.2634667 22.2300444,10.9084444 C22.2300444,11.5534222 21.7052444,12.0782222 21.0602667,12.0782222 Z" id="Shape" fill="url(#linearGradient-1)"></path>
                    <path d="M15.9569778,13.1452444 C14.3832889,13.1452444 13.1018667,14.4259556 13.1018667,15.9996444 C13.1018667,17.5740444 14.3832889,18.8551111 15.9569778,18.8551111 C17.5313778,18.8551111 18.8117333,17.5740444 18.8117333,15.9996444 C18.8117333,14.4263111 17.5310222,13.1452444 15.9569778,13.1452444 Z" id="Path" fill="#FFFFFF"></path>
                    <path d="M15.9569778,0 C7.14453333,0 0,7.14453333 0,15.9569778 C0,24.7694222 7.14453333,31.9139556 15.9569778,31.9139556 C24.7694222,31.9139556 31.9139556,24.7694222 31.9139556,15.9569778 C31.9139556,7.14453333 24.7694222,0 15.9569778,0 Z M25.5555556,20.7559111 C25.5555556,23.4264889 23.3834667,25.5985778 20.7128889,25.5985778 L11.2010667,25.5985778 C8.53084444,25.5985778 6.3584,23.4264889 6.3584,20.7559111 L6.3584,11.2440889 C6.3584,8.57386667 8.53084444,6.40142222 11.2010667,6.40142222 L20.7128889,6.40142222 C23.3834667,6.40142222 25.5555556,8.57386667 25.5555556,11.2440889 L25.5555556,20.7559111 Z" id="Shape" stroke="url(#linearGradient-2)" stroke-width="2"></path>
                </g>
            </g>
        </g>
    </g>
</svg>