<?xml version="1.0" encoding="UTF-8"?>
<svg width="116px" height="116px" viewBox="0 0 116 116" version="1.1" xmlns="http://www.w3.org/2000/svg" xmlns:xlink="http://www.w3.org/1999/xlink">
    <!-- Generator: sketchtool 55.2 (78181) - https://sketchapp.com -->
    <title>CAE74BC6-7FC3-4FCD-A602-D637E1DAEFF4</title>
    <desc>Created with sketchtool.</desc>
    <defs>
        <linearGradient x1="100%" y1="50%" x2="0%" y2="50%" id="linearGradient-1">
            <stop stop-color="#FFCB33" offset="0%"></stop>
            <stop stop-color="#FF9B17" offset="100%"></stop>
        </linearGradient>
        <circle id="path-2" cx="39" cy="39" r="39"></circle>
        <filter x="-36.5%" y="-36.5%" width="173.1%" height="173.1%" filterUnits="objectBoundingBox" id="filter-3">
            <feOffset dx="0" dy="0" in="SourceAlpha" result="shadowOffsetOuter1"></feOffset>
            <feGaussianBlur stdDeviation="9.5" in="shadowOffsetOuter1" result="shadowBlurOuter1"></feGaussianBlur>
            <feColorMatrix values="0 0 0 0 0   0 0 0 0 0   0 0 0 0 0  0 0 0 0.2 0" type="matrix" in="shadowBlurOuter1"></feColorMatrix>
        </filter>
    </defs>
    <g id="AquaGradus-Deluxe-landing-" stroke="none" stroke-width="1" fill="none" fill-rule="evenodd">
        <g id="AquaGradus-DeLuxe-landing-" transform="translate(-906.000000, -7367.000000)">
            <g id="map-pin" transform="translate(925.000000, 7386.000000)">
                <g id="Oval">
                    <use fill="black" fill-opacity="1" filter="url(#filter-3)" xlink:href="#path-2"></use>
                    <use fill="url(#linearGradient-1)" fill-rule="evenodd" xlink:href="#path-2"></use>
                </g>
                <g id="Group-2" transform="translate(11.000000, 52.000000)" fill="#FFFFFF" fill-rule="nonzero">
                    <path d="M7.10542736e-15,7.77380952 C0.240661157,7.36428571 0.379504132,6.91666667 0.564628099,6.47857143 C1.32363636,4.65 2.06413223,2.81190476 2.8231405,0.973809524 C2.90644628,0.764285714 2.99900826,0.545238095 3.13785124,0.364285714 C3.50809917,-0.121428571 4.12826446,-0.121428571 4.4985124,0.364285714 C4.74842975,0.697619048 4.86876033,1.09761905 5.0261157,1.47857143 C5.87768595,3.5452381 6.72,5.62142857 7.57157025,7.68809524 C7.68264463,7.9547619 7.60859504,8.06904762 7.33090909,8.07857143 C6.78479339,8.08809524 6.78479339,8.08809524 6.58115702,7.57380952 C6.37752066,7.05952381 6.1646281,6.5547619 5.96099174,6.04047619 C5.90545455,5.88809524 5.84066116,5.83095238 5.67404959,5.83095238 C4.43371901,5.84047619 3.19338843,5.84047619 1.95305785,5.83095238 C1.81421488,5.83095238 1.74942149,5.86904762 1.6938843,6.01190476 C1.44396694,6.65 1.18479339,7.27857143 0.934876033,7.91666667 C0.888595041,8.05 0.823801653,8.09761905 0.694214876,8.08809524 C0.592396694,8.07857143 0.481322314,8.07857143 0.379504132,8.08809524 C0.22214876,8.10714286 0.101818182,8.07857143 0.00925619835,7.93571429 C7.10542736e-15,7.87857143 7.10542736e-15,7.82142857 7.10542736e-15,7.77380952 Z M3.85057851,0.878571429 C3.74876033,0.935714286 3.73024793,1.00238095 3.71173554,1.05952381 C3.20264463,2.31666667 2.69355372,3.57380952 2.17520661,4.83095238 C2.10115702,5.01190476 2.17520661,5.01190476 2.31404959,5.01190476 C3.25818182,5.01190476 4.21157025,5.01190476 5.16495868,5.01190476 C5.27603306,5.01190476 5.38710744,5.01190476 5.52595041,5.01190476 C4.96132231,3.62142857 4.40595041,2.25952381 3.85057851,0.878571429 Z" id="Combined-Shape"></path>
                    <path d="M28.8330579,0.945238095 C28.3054545,0.945238095 27.768595,0.916666667 27.2409917,0.954761905 C26.1580165,1.02142857 25.5100826,1.61190476 25.3157025,2.68809524 C25.1398347,3.69761905 25.1398347,4.71666667 25.3527273,5.72619048 C25.5563636,6.69761905 26.1950413,7.24047619 27.1669421,7.25 C28.0370248,7.25952381 28.9071074,7.25952381 29.7771901,7.25 C30.0826446,7.25 30.1381818,7.18333333 30.1381818,6.86904762 C30.1381818,6.11666667 30.1381818,5.3547619 30.1381818,4.60238095 C30.1381818,4.29761905 30.193719,4.25 30.4899174,4.25 C30.5824793,4.25 30.6657851,4.25 30.7583471,4.25 C30.9249587,4.25952381 31.0082645,4.3452381 31.0082645,4.51666667 C31.0082645,5.42142857 31.0175207,6.32619048 30.9990083,7.23095238 C30.9897521,7.70714286 30.7213223,8.04047619 30.2307438,8.05952381 C29.0459504,8.10714286 27.861157,8.16428571 26.6763636,8.04047619 C25.482314,7.91666667 24.7418182,7.1547619 24.4641322,5.96428571 C24.1771901,4.7547619 24.1771901,3.52619048 24.454876,2.31666667 C24.778843,0.926190476 25.7970248,0.135714286 27.2409917,0.107142857 C28.3424793,0.0880952381 29.4532231,0.107142857 30.5547107,0.0976190476 C30.7490909,0.0976190476 30.8323967,0.192857143 30.8323967,0.383333333 C30.8323967,0.45 30.8323967,0.516666667 30.8323967,0.583333333 C30.8323967,0.85952381 30.7768595,0.916666667 30.5084298,0.916666667 C29.9438017,0.916666667 29.3791736,0.916666667 28.8145455,0.916666667 C28.8330579,0.935714286 28.8330579,0.935714286 28.8330579,0.945238095 Z" id="Path"></path>
                    <path d="M12.5328926,6.23095238 C12.5328926,7.3547619 12.5328926,8.46904762 12.5328926,9.59285714 C12.5328926,9.88809524 12.4866116,9.93571429 12.1996694,9.93571429 C12.134876,9.93571429 12.0700826,9.93571429 12.0052893,9.93571429 C11.7831405,9.9547619 11.6813223,9.85 11.6813223,9.61190476 C11.6905785,9.17380952 11.6720661,8.73571429 11.6905785,8.28809524 C11.6998347,8.11666667 11.6628099,8.05 11.4684298,8.05 C10.9130579,8.06904762 10.357686,8.05952381 9.80231405,8.05952381 C8.57123967,8.05952381 7.90479339,7.52619048 7.68264463,6.27857143 C7.50677686,5.30714286 7.50677686,4.32619048 7.79371901,3.37380952 C8.08066116,2.43095238 8.74710744,1.9452381 9.70975207,1.93571429 C10.3391736,1.93571429 10.968595,1.93571429 11.5980165,1.93571429 C12.1996694,1.93571429 12.5328926,2.27857143 12.5328926,2.90714286 C12.5328926,4.03095238 12.5328926,5.13571429 12.5328926,6.23095238 Z M11.6813223,5.07857143 C11.6813223,4.43095238 11.6813223,3.78333333 11.6813223,3.1452381 C11.6813223,2.81190476 11.6535537,2.76428571 11.3295868,2.76428571 C10.8019835,2.76428571 10.2743802,2.76428571 9.75603306,2.78333333 C9.06181818,2.82142857 8.69157025,3.16428571 8.56198347,3.87857143 C8.43239669,4.58333333 8.43239669,5.29761905 8.52495868,6.00238095 C8.64528926,6.93571429 9.04330579,7.27857143 9.95966942,7.27857143 C10.4595041,7.27857143 10.968595,7.26904762 11.477686,7.27857143 C11.6442975,7.27857143 11.6813223,7.23095238 11.6813223,7.06904762 C11.6720661,6.40238095 11.6813223,5.7452381 11.6813223,5.07857143 Z" id="Combined-Shape"></path>
                    <path d="M44.614876,3.83095238 C44.614876,4.91666667 44.614876,6.00238095 44.614876,7.08809524 C44.614876,7.82142857 44.3649587,8.07857143 43.6522314,8.07857143 C43.1153719,8.07857143 42.5692562,8.07857143 42.0323967,8.07857143 C40.7365289,8.07857143 40.0515702,7.50714286 39.8109091,6.18333333 C39.6720661,5.40238095 39.6628099,4.61190476 39.7923967,3.83095238 C39.9775207,2.66904762 40.8105785,1.96428571 42.0046281,1.9547619 C42.5044628,1.9452381 43.0042975,1.9452381 43.5041322,1.9547619 C43.7077686,1.96428571 43.8003306,1.91666667 43.7818182,1.67857143 C43.7633058,1.26904762 43.7818182,0.85 43.772562,0.430952381 C43.772562,0.202380952 43.8466116,0.0976190476 44.0780165,0.0976190476 C44.614876,0.0976190476 44.614876,0.0976190476 44.614876,0.65952381 C44.614876,1.71666667 44.614876,2.77380952 44.614876,3.83095238 Z M43.772562,4.93571429 C43.772562,4.27857143 43.772562,3.62142857 43.772562,2.97380952 C43.772562,2.87857143 43.8003306,2.7547619 43.6244628,2.76428571 C43.0135537,2.77380952 42.4119008,2.72619048 41.8102479,2.79285714 C41.1715702,2.85952381 40.8105785,3.19285714 40.6902479,3.84047619 C40.551405,4.60238095 40.5606612,5.37380952 40.6809917,6.13571429 C40.8013223,6.87857143 41.1808264,7.22142857 41.9120661,7.25952381 C42.4026446,7.28809524 42.8932231,7.27857143 43.3838017,7.27857143 C43.7355372,7.27857143 43.772562,7.24047619 43.772562,6.87857143 C43.772562,6.23095238 43.772562,5.58333333 43.772562,4.93571429 Z" id="Combined-Shape"></path>
                    <path d="M23.52,5.3547619 C23.52,5.96428571 23.52,6.58333333 23.52,7.19285714 C23.52,7.77380952 23.242314,8.05952381 22.6684298,8.06904762 C21.8909091,8.06904762 21.1226446,8.06904762 20.345124,8.06904762 C19.3547107,8.06904762 18.9104132,7.69761905 18.7530579,6.69761905 C18.6882645,6.31666667 18.6882645,5.91666667 18.762314,5.53571429 C18.9104132,4.72619048 19.4009917,4.30714286 20.2155372,4.29761905 C20.9652893,4.28809524 21.7150413,4.28809524 22.4647934,4.29761905 C22.6221488,4.29761905 22.6961983,4.26904762 22.677686,4.08809524 C22.6591736,3.82142857 22.6961983,3.5452381 22.6221488,3.26904762 C22.538843,2.97380952 22.3722314,2.79285714 22.0667769,2.77380952 C21.8076033,2.7547619 21.5484298,2.7547619 21.2985124,2.7547619 C20.6783471,2.7547619 20.0581818,2.7452381 19.4380165,2.7547619 C19.2343802,2.7547619 19.132562,2.67857143 19.1510744,2.45952381 C19.1603306,2.36428571 19.1510744,2.27857143 19.1510744,2.18333333 C19.1603306,2.03095238 19.2343802,1.9452381 19.3917355,1.9452381 C20.3266116,1.9452381 21.2614876,1.92619048 22.1963636,1.9547619 C23.0016529,1.98333333 23.5107438,2.59285714 23.52,3.48809524 C23.5292562,4.11666667 23.52,4.73571429 23.52,5.3547619 Z M21.4095868,5.09761905 C21.0393388,5.09761905 20.6690909,5.08809524 20.298843,5.09761905 C19.882314,5.10714286 19.7064463,5.27857143 19.6323967,5.69761905 C19.5676033,6.04047619 19.5861157,6.39285714 19.6509091,6.73571429 C19.7157025,7.08809524 19.9008264,7.25952381 20.252562,7.26904762 C20.9838017,7.28809524 21.7242975,7.27857143 22.4555372,7.27857143 C22.5943802,7.27857143 22.6684298,7.23095238 22.6684298,7.05952381 C22.6591736,6.46904762 22.6591736,5.87857143 22.6684298,5.28809524 C22.677686,5.12619048 22.6128926,5.09761905 22.4740496,5.09761905 C22.122314,5.10714286 21.7613223,5.09761905 21.4095868,5.09761905 Z" id="Combined-Shape"></path>
                    <path d="M39.1444628,5.3547619 C39.1444628,5.96428571 39.1444628,6.58333333 39.1444628,7.19285714 C39.1444628,7.77380952 38.8667769,8.06904762 38.2928926,8.06904762 C37.5153719,8.06904762 36.7471074,8.06904762 35.9695868,8.06904762 C34.9699174,8.06904762 34.5163636,7.67857143 34.3682645,6.66904762 C34.3127273,6.28809524 34.3127273,5.90714286 34.3775207,5.52619048 C34.534876,4.71666667 35.0161983,4.29761905 35.8307438,4.27857143 C36.4786777,4.26904762 37.1173554,4.27857143 37.7652893,4.27857143 C38.2928926,4.27857143 38.2928926,4.27857143 38.2928926,3.72619048 C38.2928926,3.56428571 38.2743802,3.41190476 38.2373554,3.25952381 C38.1633058,2.9547619 37.987438,2.79285714 37.6819835,2.76428571 C37.5894215,2.7547619 37.5061157,2.7452381 37.4135537,2.7452381 C36.6267769,2.7452381 35.8492562,2.73571429 35.0624793,2.7452381 C34.8310744,2.7452381 34.7292562,2.66904762 34.7477686,2.43095238 C34.7570248,2.3452381 34.7477686,2.26904762 34.7477686,2.18333333 C34.7570248,2.03095238 34.8310744,1.93571429 34.9884298,1.93571429 C35.9233058,1.93571429 36.8581818,1.91666667 37.7930579,1.9452381 C38.5983471,1.97380952 39.107438,2.58333333 39.1166942,3.47857143 C39.153719,4.11666667 39.1444628,4.73571429 39.1444628,5.3547619 Z M37.0155372,5.09761905 C36.6545455,5.09761905 36.2842975,5.08809524 35.9140496,5.10714286 C35.5067769,5.11666667 35.3309091,5.28809524 35.2568595,5.68809524 C35.2013223,6.03095238 35.2105785,6.38333333 35.2753719,6.72619048 C35.3401653,7.08809524 35.5252893,7.26904762 35.886281,7.27857143 C36.6175207,7.28809524 37.3580165,7.27857143 38.0892562,7.27857143 C38.2373554,7.27857143 38.3021488,7.21190476 38.3021488,7.05 C38.2928926,6.45952381 38.2928926,5.86904762 38.3021488,5.27857143 C38.3021488,5.13571429 38.265124,5.09761905 38.126281,5.09761905 C37.7560331,5.10714286 37.3857851,5.09761905 37.0155372,5.09761905 Z" id="Combined-Shape"></path>
                    <path d="M52.825124,8.07857143 C52.2882645,8.07857143 51.7421488,8.06904762 51.2052893,8.07857143 C50.9923967,8.07857143 50.8905785,7.99285714 50.8998347,7.77380952 C50.8998347,7.70714286 50.9090909,7.64047619 50.8998347,7.57380952 C50.8813223,7.3452381 50.9831405,7.26904762 51.1960331,7.26904762 C52.1309091,7.27857143 53.0657851,7.26904762 54.0006612,7.26904762 C54.0654545,7.26904762 54.1302479,7.26904762 54.1950413,7.26904762 C54.8152066,7.24047619 55.111405,6.7452381 54.8614876,6.1452381 C54.787438,5.96428571 54.6393388,5.87857143 54.4634711,5.81190476 C53.852562,5.60238095 53.2138843,5.48809524 52.593719,5.33571429 C52.2327273,5.25 51.8809917,5.1452381 51.5570248,4.9547619 C50.8628099,4.56428571 50.7147107,3.90714286 50.8350413,3.13571429 C50.9461157,2.44047619 51.427438,1.99285714 52.1494215,1.96428571 C53.1676033,1.92619048 54.1950413,1.9452381 55.2224793,1.9452381 C55.2595041,1.9452381 55.3057851,1.9547619 55.3335537,1.97380952 C55.5464463,2.13571429 55.4538843,2.37380952 55.4446281,2.57380952 C55.4353719,2.72619048 55.2872727,2.7547619 55.1484298,2.7547619 C54.3894215,2.7452381 53.6304132,2.7547619 52.871405,2.7547619 C52.7510744,2.7547619 52.6307438,2.7547619 52.5104132,2.7547619 C51.7791736,2.7547619 51.4459504,3.3452381 51.7884298,4.02142857 C51.8809917,4.20238095 52.0568595,4.27857143 52.2327273,4.3452381 C52.7973554,4.5547619 53.3897521,4.64047619 53.9636364,4.79285714 C54.1950413,4.85952381 54.4357025,4.90714286 54.6671074,4.98333333 C55.814876,5.3452381 55.9166942,6.00238095 55.7778512,6.93571429 C55.6760331,7.68809524 55.2039669,8.05 54.4542149,8.07857143 C54.4357025,8.07857143 54.4264463,8.07857143 54.4079339,8.07857143 C53.8710744,8.07857143 53.3434711,8.07857143 52.825124,8.07857143 Z" id="Path"></path>
                    <path d="M18.0958678,4.68809524 C18.0958678,5.49761905 18.0958678,6.29761905 18.0958678,7.10714286 C18.0958678,7.65952381 17.8089256,8.03095238 17.2813223,8.05952381 C16.4204959,8.09761905 15.5504132,8.1452381 14.698843,8.04047619 C13.8472727,7.93571429 13.3289256,7.32619048 13.3196694,6.44047619 C13.301157,5.04047619 13.3196694,3.64047619 13.3104132,2.23095238 C13.3104132,2.05 13.3844628,1.9547619 13.5695868,1.9547619 C13.578843,1.9547619 13.5880992,1.9547619 13.5973554,1.9547619 C14.1619835,1.93571429 14.1619835,1.93571429 14.1619835,2.51666667 C14.1619835,3.77380952 14.1619835,5.04047619 14.1804959,6.29761905 C14.1897521,6.9547619 14.467438,7.23095238 15.1061157,7.25 C15.6892562,7.26904762 16.2631405,7.26904762 16.846281,7.26904762 C17.1887603,7.26904762 17.2535537,7.19285714 17.2535537,6.84047619 C17.2535537,5.32619048 17.2535537,3.82142857 17.2535537,2.30714286 C17.2535537,2.00238095 17.2998347,1.9452381 17.6052893,1.9452381 C17.642314,1.9452381 17.688595,1.9452381 17.7256198,1.9452381 C18.0773554,1.9452381 18.105124,1.97380952 18.105124,2.32619048 C18.0958678,3.11666667 18.0958678,3.90714286 18.0958678,4.68809524 Z" id="Path"></path>
                    <path d="M50.2333884,4.69761905 C50.2333884,5.50714286 50.2333884,6.30714286 50.2333884,7.11666667 C50.2333884,7.66904762 49.9371901,8.04047619 49.4095868,8.05952381 C48.5487603,8.09761905 47.6786777,8.13571429 46.8271074,8.03095238 C45.9847934,7.92619048 45.4664463,7.32619048 45.4479339,6.45 C45.4294215,5.04047619 45.4386777,3.63095238 45.4386777,2.22142857 C45.4386777,2.04047619 45.5219835,1.9547619 45.7071074,1.9452381 C46.2809917,1.92619048 46.2902479,1.92619048 46.2902479,2.51666667 C46.2902479,3.77380952 46.2902479,5.02142857 46.3087603,6.26904762 C46.3180165,6.9547619 46.6049587,7.23095238 47.2621488,7.25 C47.8175207,7.26904762 48.3728926,7.26904762 48.9282645,7.26904762 C49.326281,7.26904762 49.3818182,7.21190476 49.3818182,6.78333333 C49.3818182,5.29761905 49.3818182,3.81190476 49.3818182,2.32619048 C49.3818182,1.98333333 49.418843,1.9452381 49.7613223,1.9452381 C49.8168595,1.9452381 49.8723967,1.9452381 49.9279339,1.9452381 C50.1408264,1.92619048 50.2333884,2.03095238 50.2333884,2.25 C50.2241322,3.06904762 50.2333884,3.88809524 50.2333884,4.69761905 Z" id="Path"></path>
                    <path d="M31.8413223,5.7547619 C31.8413223,5.12619048 31.8320661,4.49761905 31.8413223,3.86904762 C31.8505785,2.7452381 32.5170248,2.02142857 33.6185124,1.9547619 C33.7943802,1.9452381 33.9702479,1.9452381 34.1461157,1.9547619 C34.1923967,1.9547619 34.2479339,1.9547619 34.2849587,1.98333333 C34.4978512,2.1452381 34.3960331,2.38333333 34.3960331,2.58333333 C34.3960331,2.7452381 34.2479339,2.76428571 34.1090909,2.76428571 C32.9983471,2.78333333 32.6928926,3.09761905 32.6928926,4.24047619 C32.6836364,5.40238095 32.6928926,6.56428571 32.6928926,7.72619048 C32.6928926,8.03095238 32.6466116,8.08809524 32.341157,8.08809524 C32.2856198,8.08809524 32.2300826,8.08809524 32.1745455,8.08809524 C31.8876033,8.08809524 31.8413223,8.04047619 31.8413223,7.73571429 C31.8413223,7.06904762 31.8413223,6.41190476 31.8413223,5.7547619 Z" id="Path"></path>
                </g>
                <g id="Group" transform="translate(29.000000, 16.000000)" fill="#FFFFFF" fill-rule="nonzero">
                    <path d="M9.64601356,-2.48689958e-14 C9.80500351,0.923404255 10.0388123,1.81854103 10.2913257,2.7231003 C10.5999532,3.81610942 10.9740472,4.89027356 11.4042553,5.94559271 C11.8999299,7.12340426 12.4610708,8.26352584 13.106383,9.36595745 C13.6114099,10.2328267 14.1538462,11.0808511 14.7336918,11.9100304 C15.5847557,13.1349544 16.4732289,14.3316109 17.3617021,15.5282675 C18.2221183,16.6966565 18.801964,17.987538 19.0918868,19.4103343 C19.2415244,20.1547112 19.3163432,20.9085106 19.2789338,21.6717325 C19.2228197,22.8589666 18.9796586,23.9990881 18.5120412,25.1015198 C18.1753566,25.9024316 17.7451485,26.6468085 17.2027122,27.3158055 C16.4638765,28.2297872 15.6034604,29.0212766 14.5934066,29.6243161 C13.6581716,30.1802432 12.6574702,30.5948328 11.58195,30.8115502 C11.1049801,30.9057751 10.6186579,30.981155 10.113631,30.9905775 C9.12228197,31 8.1496376,30.9528875 7.17699322,30.6984802 C5.914426,30.3592705 4.77343933,29.8033435 3.74468085,29.0024316 C2.48211363,28.0224924 1.5001169,26.7975684 0.84545242,25.3182371 C0.42459668,24.3665653 0.144026187,23.3677812 0.0505026888,22.3218845 C-0.00561140987,21.7094225 -0.0149637596,21.087538 0.0224456395,20.4844985 C0.0972644377,19.3632219 0.368482581,18.2796353 0.82674772,17.2431611 C1.23825111,16.3103343 1.8555062,15.518845 2.47276128,14.7273556 C3.13677812,13.8699088 3.78209025,12.993617 4.42740238,12.1173252 C5.10077157,11.193921 5.727379,10.2328267 6.29787234,9.24346505 C6.76548983,8.42370821 7.19569792,7.58510638 7.56979191,6.71823708 C7.97194295,5.78541033 8.32733224,4.8337386 8.63595978,3.86322188 C9.01940613,2.65714286 9.31868132,1.43221884 9.55249006,0.188449848 C9.56184241,0.122492401 9.58054711,0.0659574468 9.59925181,-2.48689958e-14 C9.61795651,-2.48689958e-14 9.63666121,-2.48689958e-14 9.64601356,-2.48689958e-14 Z M14.4905307,23.3112462 C14.5559972,20.6069909 12.3301379,18.581155 10.0481646,18.4209726 C6.89642273,18.2042553 4.94178162,20.7200608 4.80149638,22.9155015 C4.60509703,26.062614 7.09282207,28.0413374 9.29062427,28.1826748 C12.3394903,28.3805471 14.5840542,25.8270517 14.4905307,23.3112462 Z" id="Combined-Shape"></path>
                    <path d="M14.0509703,23.2735562 C14.041618,25.7139818 12.0682722,27.6927052 9.63666121,27.6927052 C7.20505027,27.6927052 5.23170447,25.6951368 5.25040917,23.2264438 C5.25976152,20.7860182 7.24245967,18.8167173 9.67407061,18.8167173 C12.0963292,18.8261398 14.0509703,20.8237082 14.0509703,23.2735562 Z" id="Path"></path>
                </g>
            </g>
        </g>
    </g>
</svg>