<?xml version="1.0" encoding="UTF-8"?>
<svg width="24px" height="24px" viewBox="0 0 24 24" version="1.1" xmlns="http://www.w3.org/2000/svg" xmlns:xlink="http://www.w3.org/1999/xlink">
    <!-- Generator: sketchtool 55.2 (78181) - https://sketchapp.com -->
    <title>6EBC53DA-E123-453E-A56C-59BA77BEEA0C</title>
    <desc>Created with sketchtool.</desc>
    <defs>
        <linearGradient x1="100%" y1="50%" x2="0%" y2="50%" id="linearGradient-1">
            <stop stop-color="#FFCB33" offset="0%"></stop>
            <stop stop-color="#FF9B17" offset="100%"></stop>
        </linearGradient>
    </defs>
    <g id="AquaGradus-Deluxe-landing-" stroke="none" stroke-width="1" fill="none" fill-rule="evenodd">
        <g id="AquaGradus-DeLuxe-landing-" transform="translate(-1169.000000, -28.000000)">
            <g id="icons/phone" transform="translate(1169.000000, 28.000000)">
                <circle id="Oval" fill="url(#linearGradient-1)" cx="12" cy="12" r="12"></circle>
                <g id="iconfinder_phone1_172517" transform="translate(6.000000, 6.000000)" stroke="#FFFFFF">
                    <path d="M7.59655043,8.90545815 C7.59655043,8.90545815 8.64929043,8.30277815 8.92489043,8.15795815 C9.19971043,8.01261815 9.48441043,7.97595815 9.65731043,8.08151815 C9.91913043,8.24167815 12.1176904,9.70417815 12.3028104,9.83365815 C12.4879304,9.96339815 12.5771104,10.3338982 12.3225704,10.6968582 C12.0690704,11.0598182 10.8995904,12.4950182 10.4040304,12.4798002 C9.90769043,12.4635582 7.84407043,12.4183182 3.95265043,8.52585815 C0.0620104265,4.63469815 0.0159904265,2.57055815 0.000130426454,2.07421815 C-0.0157295735,1.57813815 1.41947043,0.408398151 1.78243043,0.154638151 C2.14591043,-0.0988618486 2.51693043,-0.0034418486 2.64589043,0.174918151 C2.79253043,0.377978151 4.23813043,2.56951815 4.39725043,2.82067815 C4.50619043,2.99227815 4.46615043,3.27853815 4.32081043,3.55361815 C4.17625043,3.82921815 3.57357043,4.88195815 3.57357043,4.88195815 C3.57357043,4.88195815 3.99841043,5.60657815 5.43517043,7.04307815 C6.87219043,8.47983815 7.59655043,8.90545815 7.59655043,8.90545815 Z" id="Path"></path>
                </g>
            </g>
        </g>
    </g>
</svg>