<?xml version="1.0" encoding="UTF-8"?>
<svg width="24px" height="24px" viewBox="0 0 24 24" version="1.1" xmlns="http://www.w3.org/2000/svg" xmlns:xlink="http://www.w3.org/1999/xlink">
    <!-- Generator: sketchtool 55.2 (78181) - https://sketchapp.com -->
    <title>B6FA2B0E-3820-4E5C-91F7-28E0F6149F2E</title>
    <desc>Created with sketchtool.</desc>
    <defs>
        <linearGradient x1="100%" y1="50%" x2="0%" y2="50%" id="linearGradient-1">
            <stop stop-color="#FFCB33" offset="0%"></stop>
            <stop stop-color="#FF9B17" offset="100%"></stop>
        </linearGradient>
    </defs>
    <g id="AquaGradus-Deluxe-landing-" stroke="none" stroke-width="1" fill="none" fill-rule="evenodd">
        <g id="AquaGradus-DeLuxe-landing-" transform="translate(-1179.000000, -7112.000000)">
            <g id="website" transform="translate(1179.000000, 7081.000000)">
                <g id="icons/phone" transform="translate(0.000000, 31.000000)">
                    <circle id="Oval" fill="url(#linearGradient-1)" cx="12" cy="12" r="12"></circle>
                    <g id="world-wide-web" transform="translate(3.000000, 4.000000)" fill="#FFFFFF" fill-rule="nonzero">
                        <path d="M16.184,4.70370909 C14.9132727,1.90429091 12.1175636,0.0664363636 9.04109091,0.0154545455 C5.84978182,-0.0374181818 2.94974545,1.80065455 1.63330909,4.70381818 C0.712727273,4.82650909 0,5.6164 0,6.57 L0,9.42989091 C0,10.3836 0.712872727,11.1735273 1.6336,11.2961091 C2.92789091,14.1514909 5.76178182,15.9856364 8.90909091,15.9856364 C12.0566545,15.9856364 14.8905091,14.1516364 16.1846182,11.2960727 C17.1053091,11.1734909 17.8181818,10.3835636 17.8181818,9.42989091 L17.8181818,6.57 C17.8181818,5.61610909 17.1049818,4.82603636 16.184,4.70370909 Z M9.02981818,0.695018182 C11.7339636,0.739818182 14.2013818,2.29345455 15.4220364,4.68672727 L2.39530909,4.68672727 C3.65814545,2.20338182 6.22065455,0.648472727 9.02981818,0.695018182 Z M8.90909091,15.306 C6.14043636,15.306 3.63687273,13.7547273 2.39563636,11.3131636 L15.4225455,11.3131636 C14.1814182,13.7547273 11.6779636,15.306 8.90909091,15.306 Z M17.1385455,9.42989091 C17.1385455,10.0936 16.5986182,10.6335273 15.9349091,10.6335273 L1.88327273,10.6335273 C1.21956364,10.6335273 0.679636364,10.0936 0.679636364,9.42989091 L0.679636364,6.57 C0.679636364,5.90629091 1.21956364,5.36636364 1.88327273,5.36636364 L15.9349091,5.36636364 C16.5986182,5.36636364 17.1385455,5.90629091 17.1385455,6.57 L17.1385455,9.42989091 Z" id="Shape"></path>
                        <polygon id="Path" points="4.94294545 8.47450909 4.36850909 6.69643636 3.57538182 6.69643636 3.00094545 8.47450909 2.42650909 6.69643636 1.57829091 6.69643636 2.57949091 9.63978182 3.42734545 9.63978182 3.97461818 8.03676364 4.51618182 9.63978182 5.36970909 9.63978182 6.37090909 6.69643636 5.51738182 6.69643636"></polygon>
                        <polygon id="Path" points="9.8776 8.47450909 9.30316364 6.69643636 8.51003636 6.69643636 7.93556364 8.47450909 7.36116364 6.69643636 6.51294545 6.69643636 7.51414545 9.63978182 8.362 9.63978182 8.90927273 8.03676364 9.45083636 9.63978182 10.3043273 9.63978182 11.3055636 6.69643636 10.4520364 6.69643636"></polygon>
                        <polygon id="Path" points="14.8122545 8.47450909 14.2377818 6.69643636 13.4446909 6.69643636 12.8702182 8.47450909 12.2958182 6.69643636 11.4476 6.69643636 12.4488 9.63978182 13.2966545 9.63978182 13.8439273 8.03676364 14.3854909 9.63978182 15.2389818 9.63978182 16.2401818 6.69643636 15.3866909 6.69643636"></polygon>
                    </g>
                </g>
            </g>
        </g>
    </g>
</svg>