<?xml version="1.0" encoding="UTF-8"?>
<svg width="32px" height="32px" viewBox="0 0 32 32" version="1.1" xmlns="http://www.w3.org/2000/svg" xmlns:xlink="http://www.w3.org/1999/xlink">
    <!-- Generator: sketchtool 55.2 (78181) - https://sketchapp.com -->
    <title>5102E0B7-411D-43F8-B35B-76F2D6D80B8E@1x</title>
    <desc>Created with sketchtool.</desc>
    <defs>
        <linearGradient x1="100%" y1="50%" x2="0%" y2="50%" id="linearGradient-1">
            <stop stop-color="#FFCB33" offset="0%"></stop>
            <stop stop-color="#FF9B17" offset="100%"></stop>
        </linearGradient>
        <linearGradient x1="100%" y1="50%" x2="0%" y2="50%" id="linearGradient-2">
            <stop stop-color="#FFCB33" offset="0%"></stop>
            <stop stop-color="#FF9B17" offset="100%"></stop>
        </linearGradient>
    </defs>
    <g id="AquaGradus-Deluxe-landing-" stroke="none" stroke-width="1" fill="none" fill-rule="evenodd">
        <g id="AquaGradus-DeLuxe-landing-" transform="translate(-1411.000000, -7112.000000)">
            <g id="social" transform="translate(1368.000000, 7081.000000)">
                <g id="vk" transform="translate(43.000000, 31.000000)">
                    <circle id="XMLID_11_" stroke="url(#linearGradient-1)" stroke-width="2" fill-rule="nonzero" cx="15.8861593" cy="15.8861593" r="14.8861593"></circle>
                    <path d="M15.2860885,22.8536637 L16.5329558,22.8536637 C16.5329558,22.8536637 16.9095929,22.8123186 17.1018761,22.6050265 C17.2788673,22.4147257 17.2732035,22.0573451 17.2732035,22.0573451 C17.2732035,22.0573451 17.2488496,20.3842832 18.0253451,20.1379115 C18.7907965,19.8952212 19.7737345,21.7549027 20.8155752,22.4699469 C21.6033982,23.011115 22.2020531,22.8924602 22.2020531,22.8924602 L24.9877522,22.8536637 C24.9877522,22.8536637 26.4450265,22.7638938 25.7540531,21.6181239 C25.6974159,21.5243894 25.351646,20.7705487 23.6828319,19.2215221 C21.9361416,17.6002832 22.1700531,17.8625133 24.2741239,15.0581239 C25.5555398,13.3502301 26.067823,12.3075398 25.907823,11.8609558 C25.7551858,11.4356106 24.8127434,11.5480354 24.8127434,11.5480354 L21.676177,11.5675752 C21.676177,11.5675752 21.4436814,11.5358584 21.2712212,11.6389381 C21.1027257,11.7400354 20.9942655,11.975646 20.9942655,11.975646 C20.9942655,11.975646 20.4978407,13.2972743 19.8357522,14.4212389 C18.4390796,16.7929204 17.8806372,16.9180885 17.6523894,16.7708319 C17.1214159,16.4276106 17.2539469,15.392 17.2539469,14.6562832 C17.2539469,12.3579469 17.6025487,11.399646 16.5751504,11.1515752 C16.2341947,11.0691681 15.983292,11.0147965 15.1113628,11.0060177 C13.9922124,10.9944071 13.0449558,11.0094159 12.5086018,11.2722124 C12.1517876,11.4469381 11.876531,11.8363186 12.044177,11.8586903 C12.251469,11.8864425 12.7209912,11.9852743 12.9699115,12.3242478 C13.2913274,12.7614867 13.28,13.7435752 13.28,13.7435752 C13.28,13.7435752 13.4646372,16.4491327 12.848708,16.7852743 C12.4259115,17.0157876 11.8459469,16.5451327 10.6007788,14.3934867 C9.96276106,13.2913274 9.48106195,12.0730619 9.48106195,12.0730619 C9.48106195,12.0730619 9.38817699,11.8453805 9.22251327,11.7236106 C9.02145133,11.5760708 8.74053097,11.5290619 8.74053097,11.5290619 L5.76,11.5486018 C5.76,11.5486018 5.31256637,11.5610619 5.14831858,11.7556106 C5.00219469,11.9286372 5.13670796,12.2865841 5.13670796,12.2865841 C5.13670796,12.2865841 7.47015929,17.7458407 10.1122832,20.4969912 C12.5349381,23.0193274 15.2860885,22.8536637 15.2860885,22.8536637 L15.2860885,22.8536637 Z" id="Path" fill="url(#linearGradient-2)"></path>
                </g>
            </g>
        </g>
    </g>
</svg>