<?xml version="1.0" encoding="UTF-8"?>
<svg width="32px" height="32px" viewBox="0 0 32 32" version="1.1" xmlns="http://www.w3.org/2000/svg" xmlns:xlink="http://www.w3.org/1999/xlink">
    <!-- Generator: sketchtool 55.2 (78181) - https://sketchapp.com -->
    <title>29514EE6-C596-40AB-8DD9-49E9610F2D48@1x</title>
    <desc>Created with sketchtool.</desc>
    <defs>
        <linearGradient x1="100%" y1="50%" x2="0%" y2="50%" id="linearGradient-1">
            <stop stop-color="#FFCB33" offset="0%"></stop>
            <stop stop-color="#FF9B17" offset="100%"></stop>
        </linearGradient>
        <linearGradient x1="100%" y1="50%" x2="0%" y2="50%" id="linearGradient-2">
            <stop stop-color="#FFCB33" offset="0%"></stop>
            <stop stop-color="#FF9B17" offset="100%"></stop>
        </linearGradient>
    </defs>
    <g id="AquaGradus-Deluxe-landing-" stroke="none" stroke-width="1" fill="none" fill-rule="evenodd">
        <g id="AquaGradus-DeLuxe-landing-" transform="translate(-1455.000000, -7112.000000)" fill-rule="nonzero">
            <g id="social" transform="translate(1368.000000, 7081.000000)">
                <g id="youtube" transform="translate(87.000000, 31.000000)">
                    <path d="M15.9626301,1 C7.69895933,1 1,7.69930878 1,15.9627397 C1,24.2261866 7.69886563,30.9253699 15.9626301,30.9253699 C24.2264566,30.9253699 30.9253699,24.2262342 30.9253699,15.9627397 C30.9253699,7.69922222 24.2264336,1 15.9626301,1 Z" id="Path" stroke="url(#linearGradient-1)" stroke-width="2"></path>
                    <path d="M15.5775342,12.9706301 C16.0823014,12.9706301 16.4774795,12.8099726 16.7667945,12.581589 C17.054137,12.3521096 17.1978082,12.0398904 17.1978082,11.6387945 L17.1978082,9.21841096 C17.1978082,8.86224658 17.0511781,8.56789041 16.7587945,8.34147945 C16.4644384,8.1149589 16.0883288,8.00230137 15.6273973,8.00230137 C15.1236164,8.00230137 14.7205479,8.1090411 14.4222466,8.32350685 C14.1229589,8.5389589 13.9732603,8.82630137 13.9732603,9.19046575 L13.9732603,11.6187397 C13.9732603,12.0177534 14.1189041,12.3330411 14.4101918,12.5695342 C14.7014795,12.8060274 15.091726,12.9706301 15.5775342,12.9706301 Z M15.049863,9.30827397 C15.049863,9.21643836 15.0977534,9.14268493 15.1925479,9.08383562 C15.2883288,9.0269589 15.4120548,8.9990137 15.563726,8.9990137 C15.7293151,8.9990137 15.8630137,9.0269589 15.9638356,9.08383562 C16.0656438,9.14268493 16.1155068,9.21654795 16.1155068,9.30827397 L16.1155068,11.6088767 C16.1155068,11.7226301 16.0656438,11.8123836 15.9658082,11.8772603 C15.8660822,11.9411507 15.7323836,11.9740274 15.563726,11.9740274 C15.3991233,11.9740274 15.2714521,11.9431233 15.1825753,11.8782466 C15.0947945,11.8153425 15.049863,11.725589 15.049863,11.6088767 L15.049863,9.30827397 L15.049863,9.30827397 Z M18.9178082,12.9676712 C19.0953425,12.9676712 19.2759452,12.865863 19.4635616,12.7641644 C19.6531507,12.6603836 19.8336438,12.5087123 20.0073425,12.3112329 L20.0073425,12.8489863 L20.950137,12.8489863 L20.950137,7.99528767 L20.0073425,7.99528767 L20.0073425,11.6796712 C19.9195616,11.7844384 19.8218082,11.8712329 19.7170411,11.9400548 C19.6103014,12.0078904 19.5225205,12.0428493 19.4536986,12.0428493 C19.3649315,12.0428493 19.3000548,12.017863 19.262137,11.9650411 C19.2222466,11.9141918 19.2003288,11.8313425 19.2003288,11.717589 L19.2003288,7.99627397 L18.2595068,7.99627397 L18.2595068,12.0518356 C18.2595068,12.3411507 18.3163836,12.5576986 18.4250959,12.7013699 C18.5356712,12.8459178 18.6992877,12.9676712 18.9178082,12.9676712 Z M21.6593973,14.9740274 L10.2659726,14.9740274 C8.45424658,14.9740274 6.98663014,16.3857534 6.98663014,18.1247123 L6.98663014,20.7884932 C6.98663014,22.5284384 8.45424658,23.9401644 10.2659726,23.9401644 L21.6592877,23.9401644 C23.4700274,23.9401644 24.9386301,22.5284384 24.9386301,20.7884932 L24.9386301,18.1247123 C24.9386301,16.3856438 23.470137,14.9740274 21.6593973,14.9740274 Z M11.9609863,17.6776986 L10.9534247,17.6776986 L10.9534247,21.8499726 L9.97873973,21.8499726 L9.97873973,17.6776986 L8.97106849,17.6776986 L8.97106849,16.9663562 L11.9610959,16.9663562 C11.9609863,16.9663562 11.9609863,17.6776986 11.9609863,17.6776986 Z M14.968,21.9078356 L13.9174795,21.9078356 L13.9174795,21.4748493 C13.7219726,21.6345205 13.5214247,21.7571507 13.3099178,21.8390137 C13.1013699,21.9248219 12.897863,21.9656986 12.7003836,21.9656986 C12.4569863,21.9656986 12.2753973,21.9068493 12.1516712,21.7881644 C12.0299178,21.6714521 11.9671233,21.4958904 11.9671233,21.2613699 L11.9671233,17.9671233 L13.0176438,17.9671233 L13.0176438,20.9890411 C13.0176438,21.0828493 13.0395616,21.1487123 13.0815342,21.1905753 C13.1274521,21.2334247 13.2002192,21.2523836 13.2980822,21.2523836 C13.3739178,21.2523836 13.4736438,21.2254247 13.5913425,21.1695342 C13.7100274,21.1146301 13.8188493,21.0448219 13.917589,20.9580274 L13.917589,17.9660274 L14.9681096,17.9660274 C14.968,17.9660274 14.968,21.9078356 14.968,21.9078356 Z M18.9446575,21.157589 C18.9446575,21.416 18.8627945,21.6124932 18.700274,21.7512329 C18.5396164,21.889863 18.3022466,21.9576986 17.9959452,21.9576986 C17.7914521,21.9576986 17.609863,21.931726 17.4521644,21.8789041 C17.293589,21.8260822 17.1438904,21.7442192 17.0082192,21.6314521 L17.0082192,21.9107945 L15.9596712,21.9107945 L15.9596712,16.9663562 L17.0082192,16.9663562 L17.0082192,18.5596712 C17.1499178,18.4499726 17.2985205,18.3641644 17.4531507,18.3063014 C17.611726,18.2474521 17.7713973,18.2195068 17.9320548,18.2195068 C18.260274,18.2195068 18.5106849,18.2963288 18.6832877,18.4509589 C18.857863,18.6065753 18.9446575,18.8350685 18.9446575,19.1333699 C18.9446575,19.1332603 18.9446575,21.157589 18.9446575,21.157589 Z M22.9413699,20.0451507 L21.0059178,20.0451507 L21.0059178,20.7574795 C21.0059178,20.9560548 21.0378082,21.0936986 21.1046575,21.1715068 C21.1724932,21.2483288 21.2872329,21.2862466 21.4478904,21.2862466 C21.6175342,21.2862466 21.7332603,21.2533699 21.8010959,21.1884932 C21.8669589,21.1226301 21.9029041,20.9799452 21.9029041,20.7564932 L21.9029041,20.5848767 L22.9434521,20.5848767 L22.9434521,20.778411 C22.9434521,21.1654795 22.8187397,21.4568767 22.5613151,21.6533699 C22.3079452,21.8488767 21.9287671,21.9466301 21.4249863,21.9466301 C20.9710685,21.9466301 20.6139178,21.8428493 20.3535342,21.6353973 C20.094137,21.4299178 19.962411,21.1425753 19.962411,20.7793973 L19.962411,19.0813151 C19.962411,18.7550685 20.1060822,18.4856986 20.3934247,18.2792329 C20.6797808,18.0737534 21.0469041,17.9709589 21.5008219,17.9709589 C21.963726,17.9709589 22.3198904,18.0667397 22.5693151,18.2573151 C22.8177534,18.4478904 22.9414795,18.7231781 22.9414795,19.0804384 C22.9413699,19.0804384 22.9413699,20.0451507 22.9413699,20.0451507 Z M11.3963836,12.9816986 L12.5866301,12.9816986 L12.5866301,10.0814247 L13.9723836,5.9910137 L12.7621918,5.9910137 L12.025863,8.78652055 L11.9500274,8.78652055 L11.177863,5.9910137 L9.97764384,5.9910137 L11.396274,10.2121644 C11.3963836,10.2121644 11.3963836,12.9816986 11.3963836,12.9816986 Z M17.4421918,18.7980274 L17.2216986,18.8339726 L17.0072329,18.9447671 L17.0072329,21.2174247 C17.0910685,21.276274 17.1738082,21.3212055 17.2536986,21.3460822 L17.5041096,21.3849863 C17.6317808,21.3849863 17.7246027,21.36 17.7844384,21.3071781 C17.8432877,21.2563288 17.8741918,21.1724932 17.8741918,21.0577534 L17.8741918,19.1731507 C17.8741918,19.0484384 17.8392329,18.9556164 17.7654795,18.8928219 C17.6896438,18.8300274 17.5829041,18.7980274 17.4421918,18.7980274 Z" id="Shape" fill="url(#linearGradient-2)"></path>
                    <path d="M21.5037808,18.6324384 C21.342137,18.6324384 21.2273973,18.666411 21.1566027,18.7362192 C21.0867945,18.8030685 21.0528219,18.9168219 21.0528219,19.0753973 L21.0528219,19.4565479 L21.947726,19.4565479 L21.947726,19.0753973 C21.947726,18.9168219 21.9107945,18.8040548 21.8409863,18.7362192 C21.7720548,18.666411 21.6574247,18.6324384 21.5037808,18.6324384 Z" id="Path" fill="#FFFFFF"></path>
                </g>
            </g>
        </g>
    </g>
</svg>